<svg width="22" height="26" viewBox="0 0 22 26" fill="none" xmlns="http://www.w3.org/2000/svg">
<path opacity="0.8" d="M5.5 0C5.93214 0 6.28571 0.353571 6.28571 0.785714V3.14286H15.7143V0.785714C15.7143 0.353571 16.0679 0 16.5 0C16.9321 0 17.2857 0.353571 17.2857 0.785714V3.14286H18.8571C20.5906 3.14286 22 4.55223 22 6.28571V7.85714V9.42857V22C22 23.7335 20.5906 25.1429 18.8571 25.1429H3.14286C1.40937 25.1429 0 23.7335 0 22V9.42857V7.85714V6.28571C0 4.55223 1.40937 3.14286 3.14286 3.14286H4.71429V0.785714C4.71429 0.353571 5.06786 0 5.5 0ZM20.4286 9.42857H15.3214V12.9643H20.4286V9.42857ZM20.4286 14.5357H15.3214V18.4643H20.4286V14.5357ZM20.4286 20.0357H15.3214V23.5714H18.8571C19.7263 23.5714 20.4286 22.8692 20.4286 22V20.0357ZM13.75 18.4643V14.5357H8.25V18.4643H13.75ZM8.25 20.0357V23.5714H13.75V20.0357H8.25ZM6.67857 18.4643V14.5357H1.57143V18.4643H6.67857ZM1.57143 20.0357V22C1.57143 22.8692 2.27366 23.5714 3.14286 23.5714H6.67857V20.0357H1.57143ZM1.57143 12.9643H6.67857V9.42857H1.57143V12.9643ZM8.25 12.9643H13.75V9.42857H8.25V12.9643ZM18.8571 4.71429H3.14286C2.27366 4.71429 1.57143 5.41652 1.57143 6.28571V7.85714H20.4286V6.28571C20.4286 5.41652 19.7263 4.71429 18.8571 4.71429Z" fill="white"/>
</svg>
